<svg width="47" height="64" viewBox="0 0 47 64" fill="none" xmlns="http://www.w3.org/2000/svg">
<path d="M30.9513 55.8215L19.4188 58.9281C18.5971 59.1493 17.7449 58.6547 17.5247 57.8287C17.3046 57.0028 17.7967 56.1459 18.6182 55.9246L30.1507 52.8181C30.9723 52.5968 31.8246 53.0914 32.0448 53.9174C32.2651 54.7434 31.7728 55.6002 30.9513 55.8215ZM25.6116 20.1923C25.5083 21.6056 24.7131 22.4022 23.4785 22.3821C22.2493 22.3621 21.3547 21.5152 21.3842 20.2255C21.4128 18.9707 22.1954 18.1464 23.5267 18.1611C24.8572 18.1754 25.5167 18.9658 25.6116 20.1923ZM40.3964 15.4292C35.8087 7.81158 26.722 4.11045 18.2802 6.58997C10.8926 8.76003 6.07567 13.6639 4.32419 21.2058C2.59057 28.6706 4.74841 35.0912 10.2096 40.4682C11.4903 41.7293 12.6679 43.2568 13.3899 44.8868C14.1138 46.5206 14.3458 47.0315 16.1089 46.6026C18.5576 46.0069 20.9734 45.2753 23.4216 44.6774C24.6767 44.3709 25.1535 43.6665 25.1452 42.3945C25.1116 37.261 25.1229 32.1271 25.1415 26.9935C25.1455 25.8314 24.7823 24.8746 23.5386 24.8456C22.2797 24.8162 21.8942 25.741 21.9048 26.9257C21.9339 30.254 21.9136 33.5825 21.9133 36.9109C21.9132 42.2653 21.9133 42.2653 16.6764 43.0346C14.6855 40.7413 12.8726 38.6797 11.0886 36.593C4.68611 29.1036 5.85695 18.0323 13.8478 12.2982C19.5887 8.17851 25.7557 7.94927 31.9042 11.4277C37.6133 14.6577 40.7192 21.312 39.896 27.7492C39.346 32.0495 37.3035 35.4821 34.274 38.4329C32.4456 40.2138 30.7796 42.1311 30.1798 44.7061C29.8993 45.9105 29.2276 46.5079 28.067 46.7954C28.2839 46.5928 15.5579 50.1775 15.5579 50.1775C14.7528 50.3943 14.2707 51.234 14.4865 52.0432L14.5196 52.1684C14.7354 52.9777 15.5705 53.4625 16.3756 53.2457C16.3756 53.2457 30.9775 49.301 31.1689 49.2465C32.5211 48.8712 33.2571 47.9035 33.2879 46.5221C33.334 44.46 34.2252 42.855 35.6756 41.4848C36.4521 40.7512 37.2252 40.0111 37.9559 39.2323C43.987 32.8015 44.9824 23.044 40.3964 15.429V15.4292Z" fill="#5A5A5A"/>
</svg>
