<svg width="34" height="34" viewBox="0 0 34 34" fill="none" xmlns="http://www.w3.org/2000/svg">
<path d="M17.704 17.6541L9.2272 28.485C9.12759 28.6145 8.97153 28.6875 8.80884 28.6875H6.24224C6.01978 28.6875 5.89692 28.4318 6.03306 28.2592L14.8452 17L6.03306 5.74082C6.0024 5.70167 5.98338 5.65469 5.97816 5.60524C5.97295 5.55579 5.98176 5.50587 6.00358 5.46119C6.0254 5.41651 6.05935 5.37887 6.10156 5.35257C6.14376 5.32628 6.19251 5.31239 6.24224 5.3125H8.80884C8.97153 5.3125 9.12759 5.38887 9.2272 5.51504L17.704 16.3426C18.0061 16.7311 18.0061 17.2689 17.704 17.6541V17.6541ZM27.7977 17.6541L19.3209 28.485C19.2213 28.6145 19.0653 28.6875 18.9026 28.6875H16.336C16.1135 28.6875 15.9907 28.4318 16.1268 28.2592L24.9389 17L16.1268 5.74082C16.0961 5.70167 16.0771 5.65469 16.0719 5.60524C16.0667 5.55579 16.0755 5.50587 16.0973 5.46119C16.1191 5.41651 16.1531 5.37887 16.1953 5.35257C16.2375 5.32628 16.2863 5.31239 16.336 5.3125H18.9026C19.0653 5.3125 19.2213 5.38887 19.3209 5.51504L27.7977 16.3426C28.0998 16.7311 28.0998 17.2689 27.7977 17.6541V17.6541Z" fill="#2C2C2C"/>
</svg>
