<svg width="58" height="59" viewBox="0 0 58 59" fill="none" xmlns="http://www.w3.org/2000/svg">
<path d="M24.1667 8.15274H9.66667C9.02573 8.15274 8.41104 8.40735 7.95783 8.86057C7.50461 9.31378 7.25 9.92847 7.25 10.5694V25.0694C7.25 25.7103 7.50461 26.325 7.95783 26.7782C8.41104 27.2315 9.02573 27.4861 9.66667 27.4861H24.1667C24.8076 27.4861 25.4223 27.2315 25.8755 26.7782C26.3287 26.325 26.5833 25.7103 26.5833 25.0694V10.5694C26.5833 9.92847 26.3287 9.31378 25.8755 8.86057C25.4223 8.40735 24.8076 8.15274 24.1667 8.15274ZM21.75 22.6527H12.0833V12.9861H21.75V22.6527ZM48.3333 8.15274H33.8333C33.1924 8.15274 32.5777 8.40735 32.1245 8.86057C31.6713 9.31378 31.4167 9.92847 31.4167 10.5694V25.0694C31.4167 25.7103 31.6713 26.325 32.1245 26.7782C32.5777 27.2315 33.1924 27.4861 33.8333 27.4861H48.3333C48.9743 27.4861 49.589 27.2315 50.0422 26.7782C50.4954 26.325 50.75 25.7103 50.75 25.0694V10.5694C50.75 9.92847 50.4954 9.31378 50.0422 8.86057C49.589 8.40735 48.9743 8.15274 48.3333 8.15274ZM45.9167 22.6527H36.25V12.9861H45.9167V22.6527ZM24.1667 32.3194H9.66667C9.02573 32.3194 8.41104 32.574 7.95783 33.0272C7.50461 33.4804 7.25 34.0951 7.25 34.7361V49.2361C7.25 49.877 7.50461 50.4917 7.95783 50.9449C8.41104 51.3981 9.02573 51.6527 9.66667 51.6527H24.1667C24.8076 51.6527 25.4223 51.3981 25.8755 50.9449C26.3287 50.4917 26.5833 49.877 26.5833 49.2361V34.7361C26.5833 34.0951 26.3287 33.4804 25.8755 33.0272C25.4223 32.574 24.8076 32.3194 24.1667 32.3194ZM21.75 46.8194H12.0833V37.1527H21.75V46.8194ZM41.0833 32.3194C35.7522 32.3194 31.4167 36.6549 31.4167 41.9861C31.4167 47.3172 35.7522 51.6527 41.0833 51.6527C46.4145 51.6527 50.75 47.3172 50.75 41.9861C50.75 36.6549 46.4145 32.3194 41.0833 32.3194ZM41.0833 46.8194C38.4178 46.8194 36.25 44.6517 36.25 41.9861C36.25 39.3205 38.4178 37.1527 41.0833 37.1527C43.7489 37.1527 45.9167 39.3205 45.9167 41.9861C45.9167 44.6517 43.7489 46.8194 41.0833 46.8194Z" fill="#5A5A5A"/>
</svg>
