<svg width="56" height="57" viewBox="0 0 56 57" fill="none" xmlns="http://www.w3.org/2000/svg">
<path d="M28 14.9027C26.2694 14.9027 24.5777 15.4159 23.1388 16.3774C21.6998 17.3388 20.5783 18.7054 19.9161 20.3043C19.2538 21.9031 19.0805 23.6624 19.4181 25.3598C19.7558 27.0571 20.5891 28.6162 21.8128 29.8399C23.0365 31.0636 24.5956 31.897 26.293 32.2346C27.9903 32.5722 29.7496 32.399 31.3485 31.7367C32.9473 31.0744 34.3139 29.9529 35.2754 28.514C36.2368 27.0751 36.75 25.3833 36.75 23.6527C36.75 21.3321 35.8281 19.1065 34.1872 17.4656C32.5462 15.8246 30.3207 14.9027 28 14.9027ZM28 28.9027C26.9617 28.9027 25.9466 28.5948 25.0833 28.018C24.2199 27.4411 23.547 26.6211 23.1496 25.6618C22.7523 24.7025 22.6483 23.6469 22.8509 22.6285C23.0535 21.6101 23.5535 20.6747 24.2877 19.9404C25.0219 19.2062 25.9574 18.7062 26.9758 18.5036C27.9942 18.301 29.0498 18.405 30.0091 18.8024C30.9684 19.1997 31.7883 19.8726 32.3652 20.736C32.9421 21.5994 33.25 22.6144 33.25 23.6527C33.2486 25.0447 32.695 26.3793 31.7108 27.3635C30.7265 28.3478 29.392 28.9014 28 28.9027Z" fill="#5A5A5A"/>
<path d="M28 4.40274C23.1544 4.40274 18.4175 5.83964 14.3885 8.53174C10.3595 11.2238 7.21931 15.0502 5.36496 19.527C3.51062 24.0038 3.02543 28.9299 3.97077 33.6825C4.91611 38.435 7.24951 42.8005 10.6759 46.2269C14.1023 49.6532 18.4678 51.9866 23.2203 52.932C27.9728 53.8773 32.899 53.3921 37.3758 51.5378C41.8525 49.6834 45.6789 46.5432 48.371 42.5142C51.0631 38.4852 52.5 33.7484 52.5 28.9027C52.4926 22.4072 49.909 16.1798 45.3159 11.5868C40.7229 6.99377 34.4955 4.41015 28 4.40274ZM17.5 47.0625V44.6527C17.5014 43.2608 18.055 41.9262 19.0392 40.942C20.0235 39.9577 21.3581 39.4041 22.75 39.4027H33.25C34.642 39.4041 35.9765 39.9577 36.9608 40.942C37.945 41.9262 38.4986 43.2608 38.5 44.6527V47.0625C35.3136 48.9231 31.6899 49.9036 28 49.9036C24.3101 49.9036 20.6865 48.9231 17.5 47.0625ZM41.986 44.5232C41.9511 42.2278 41.0159 40.038 39.3819 38.4255C37.7478 36.8131 35.5457 35.9071 33.25 35.9027H22.75C20.4543 35.9071 18.2522 36.8131 16.6182 38.4255C14.9841 40.038 14.0489 42.2278 14.014 44.5232C10.8405 41.6896 8.60254 37.9588 7.59647 33.8249C6.5904 29.691 6.86368 25.3491 8.38013 21.374C9.89657 17.3989 12.5846 13.9782 16.0884 11.5647C19.5922 9.15131 23.7464 7.85904 28.0009 7.85904C32.2554 7.85904 36.4096 9.15131 39.9134 11.5647C43.4171 13.9782 46.1052 17.3989 47.6216 21.374C49.1381 25.3491 49.4114 29.691 48.4053 33.8249C47.3992 37.9588 45.1613 41.6896 41.9878 44.5232H41.986Z" fill="#5A5A5A"/>
</svg>
