<svg width="31" height="29" viewBox="0 0 31 29" fill="none" xmlns="http://www.w3.org/2000/svg">
<path d="M31 6.2143V7.25001C31 7.38736 30.9456 7.51908 30.8487 7.61619C30.7518 7.71331 30.6204 7.76787 30.4833 7.76787H28.9333V8.54466C28.9333 8.97364 28.5863 9.32144 28.1583 9.32144H2.84167C2.41367 9.32144 2.06667 8.97364 2.06667 8.54466V7.76787H0.516667C0.379638 7.76787 0.248222 7.71331 0.151328 7.61619C0.0544343 7.51908 0 7.38736 0 7.25001V6.2143C7.38926e-07 6.11185 0.0303205 6.0117 0.087123 5.92652C0.143925 5.84135 0.224658 5.77497 0.319106 5.7358L15.3024 0.0393747C15.4289 -0.0131249 15.5711 -0.0131249 15.6976 0.0393747L30.6809 5.7358C30.7753 5.77497 30.8561 5.84135 30.9129 5.92652C30.9697 6.0117 31 6.11185 31 6.2143V6.2143ZM29.45 25.8929H1.55C0.693948 25.8929 0 26.5884 0 27.4464V28.4821C0 28.6195 0.0544343 28.7512 0.151328 28.8483C0.248222 28.9454 0.379638 29 0.516667 29H30.4833C30.6204 29 30.7518 28.9454 30.8487 28.8483C30.9456 28.7512 31 28.6195 31 28.4821V27.4464C31 26.5884 30.3061 25.8929 29.45 25.8929ZM5.16667 10.3572V22.7857H2.84167C2.41367 22.7857 2.06667 23.1335 2.06667 23.5625V24.8571H28.9333V23.5625C28.9333 23.1335 28.5863 22.7857 28.1583 22.7857H25.8333V10.3572H21.7V22.7857H17.5667V10.3572H13.4333V22.7857H9.3V10.3572H5.16667Z" fill="#535353"/>
</svg>
