<svg width="27" height="27" viewBox="0 0 27 27" fill="none" xmlns="http://www.w3.org/2000/svg">
<path d="M12.6562 15.293H9.80859C9.75265 15.293 9.699 15.3152 9.65944 15.3548C9.61988 15.3943 9.59766 15.448 9.59766 15.5039V16.7695C9.59766 16.8255 9.61988 16.8791 9.65944 16.9187C9.699 16.9582 9.75265 16.9805 9.80859 16.9805H12.6562V19.8281C12.6562 19.8841 12.6785 19.9377 12.718 19.9773C12.7576 20.0168 12.8112 20.0391 12.8672 20.0391H14.1328C14.1888 20.0391 14.2424 20.0168 14.282 19.9773C14.3215 19.9377 14.3438 19.8841 14.3438 19.8281V16.9805H17.1914C17.2474 16.9805 17.301 16.9582 17.3406 16.9187C17.3801 16.8791 17.4023 16.8255 17.4023 16.7695V15.5039C17.4023 15.448 17.3801 15.3943 17.3406 15.3548C17.301 15.3152 17.2474 15.293 17.1914 15.293H14.3438V12.4453C14.3438 12.3894 14.3215 12.3357 14.282 12.2962C14.2424 12.2566 14.1888 12.2344 14.1328 12.2344H12.8672C12.8112 12.2344 12.7576 12.2566 12.718 12.2962C12.6785 12.3357 12.6562 12.3894 12.6562 12.4453V15.293ZM22.5334 7.61221C22.6916 7.77041 22.7812 7.98398 22.7812 8.20811V24.4688C22.7812 24.9354 22.4042 25.3125 21.9375 25.3125H5.0625C4.5958 25.3125 4.21875 24.9354 4.21875 24.4688V2.53125C4.21875 2.06455 4.5958 1.6875 5.0625 1.6875H16.2606C16.4848 1.6875 16.701 1.77715 16.8592 1.93535L22.5334 7.61221ZM20.8354 8.5957L15.873 3.6334V8.5957H20.8354Z" fill="white"/>
</svg>
