<svg width="38" height="38" viewBox="0 0 38 38" fill="none" xmlns="http://www.w3.org/2000/svg">
<path d="M17.8125 21.5234H13.8047C13.726 21.5234 13.6504 21.5547 13.5948 21.6104C13.5391 21.6661 13.5078 21.7416 13.5078 21.8203V23.6016C13.5078 23.6803 13.5391 23.7558 13.5948 23.8115C13.6504 23.8672 13.726 23.8984 13.8047 23.8984H17.8125V27.9062C17.8125 27.985 17.8438 28.0605 17.8995 28.1162C17.9551 28.1718 18.0306 28.2031 18.1094 28.2031H19.8906C19.9694 28.2031 20.0449 28.1718 20.1005 28.1162C20.1562 28.0605 20.1875 27.985 20.1875 27.9062V23.8984H24.1953C24.274 23.8984 24.3496 23.8672 24.4052 23.8115C24.4609 23.7558 24.4922 23.6803 24.4922 23.6016V21.8203C24.4922 21.7416 24.4609 21.6661 24.4052 21.6104C24.3496 21.5547 24.274 21.5234 24.1953 21.5234H20.1875V17.5156C20.1875 17.4369 20.1562 17.3614 20.1005 17.3057C20.0449 17.25 19.9694 17.2188 19.8906 17.2188H18.1094C18.0306 17.2188 17.9551 17.25 17.8995 17.3057C17.8438 17.3614 17.8125 17.4369 17.8125 17.5156V21.5234ZM31.7137 10.7135C31.9363 10.9361 32.0625 11.2367 32.0625 11.5521V34.4375C32.0625 35.0943 31.5318 35.625 30.875 35.625H7.125C6.46816 35.625 5.9375 35.0943 5.9375 34.4375V3.5625C5.9375 2.90566 6.46816 2.375 7.125 2.375H22.8854C23.2008 2.375 23.5051 2.50117 23.7277 2.72383L31.7137 10.7135ZM29.3238 12.0977L22.3398 5.11367V12.0977H29.3238Z" fill="#294852"/>
</svg>
