<svg width="32" height="34" viewBox="0 0 32 34" fill="none" xmlns="http://www.w3.org/2000/svg">
<path d="M23 0V3H26.88L20.56 9.32C19.24 8.48 17.68 8 16 8C14.32 8 12.76 8.48 11.44 9.32L10.24 8.12L12.36 6L10.24 3.88L8.12 6L5.12 3H9V0H0V9H3V5.12L6 8.12L3.88 10.24L6 12.36L8.12 10.24L9.24 11.36C8.14 12.78 7.5 14.56 7.5 16.5C7.5 20.68 10.52 24.16 14.5 24.86V28H11.5V31H14.5V34H17.5V31H20.5V28H17.5V24.86C21.48 24.16 24.5 20.68 24.5 16.5C24.5 14.56 23.86 12.78 22.76 11.36L29 5.12V9H32V0H23ZM16 22C12.96 22 10.5 19.54 10.5 16.5C10.5 13.46 12.96 11 16 11C19.04 11 21.5 13.46 21.5 16.5C21.5 19.54 19.04 22 16 22Z" fill="#535353"/>
</svg>
