<svg width="34" height="26" viewBox="0 0 34 26" fill="none" xmlns="http://www.w3.org/2000/svg">
<path d="M16.5492 6.74508L5.66711 15.5588V25.0713C5.66711 25.3176 5.76661 25.5538 5.94371 25.728C6.12082 25.9022 6.36102 26 6.61149 26L13.2256 25.9832C13.4753 25.9819 13.7143 25.8836 13.8904 25.7095C14.0664 25.5355 14.1653 25.3 14.1653 25.0545V19.4993C14.1653 19.253 14.2648 19.0168 14.4419 18.8426C14.619 18.6684 14.8592 18.5706 15.1097 18.5706H18.8871C19.1376 18.5706 19.3778 18.6684 19.5549 18.8426C19.732 19.0168 19.8315 19.253 19.8315 19.4993V25.0504C19.8311 25.1726 19.8553 25.2937 19.9025 25.4067C19.9498 25.5197 20.0193 25.6224 20.1071 25.709C20.1948 25.7955 20.299 25.8642 20.4138 25.911C20.5286 25.9579 20.6516 25.982 20.7759 25.982L27.3877 26C27.6381 26 27.8783 25.9022 28.0554 25.728C28.2325 25.5538 28.332 25.3176 28.332 25.0713V15.5524L17.4523 6.74508C17.3244 6.6437 17.165 6.58841 17.0008 6.58841C16.8365 6.58841 16.6771 6.6437 16.5492 6.74508V6.74508ZM33.7386 12.7356L28.8042 8.73593V0.696506C28.8042 0.511781 28.7296 0.334622 28.5968 0.204002C28.4639 0.0733818 28.2838 0 28.0959 0H24.7906C24.6028 0 24.4226 0.0733818 24.2898 0.204002C24.157 0.334622 24.0824 0.511781 24.0824 0.696506V4.91095L18.798 0.635562C18.2909 0.225192 17.6545 0.000820337 16.9978 0.000820337C16.3411 0.000820337 15.7047 0.225192 15.1976 0.635562L0.257045 12.7356C0.185325 12.7939 0.125987 12.8655 0.0824235 12.9464C0.0388596 13.0272 0.0119231 13.1157 0.00315311 13.2068C-0.00561692 13.2979 0.0039514 13.3898 0.0313114 13.4773C0.0586713 13.5647 0.103287 13.646 0.162608 13.7165L1.6677 15.5158C1.72686 15.5866 1.79963 15.6452 1.88184 15.6882C1.96404 15.7312 2.05408 15.7579 2.14679 15.7667C2.2395 15.7755 2.33306 15.7662 2.42211 15.7394C2.51117 15.7126 2.59397 15.6688 2.66578 15.6104L16.5492 4.36535C16.6771 4.26397 16.8365 4.20868 17.0008 4.20868C17.165 4.20868 17.3244 4.26397 17.4523 4.36535L31.3363 15.6104C31.408 15.6688 31.4907 15.7127 31.5796 15.7396C31.6685 15.7665 31.762 15.7759 31.8546 15.7673C31.9473 15.7586 32.0373 15.7321 32.1195 15.6893C32.2017 15.6465 32.2745 15.5881 32.3338 15.5176L33.8389 13.7183C33.8982 13.6474 33.9426 13.5657 33.9696 13.4778C33.9967 13.39 34.0058 13.2977 33.9965 13.2064C33.9871 13.1151 33.9595 13.0265 33.9153 12.9457C33.871 12.8649 33.811 12.7935 33.7386 12.7356V12.7356Z" fill="white"/>
</svg>
