<svg width="74" height="111" viewBox="0 0 74 111" fill="none" xmlns="http://www.w3.org/2000/svg">
<path d="M60.4688 52.7188V57.0312C60.4688 62.1562 59.8281 66.75 58.5469 70.8125C57.2656 74.875 55.4219 78.3281 53.0156 81.1719C50.6094 84.0156 47.7188 86.1875 44.3438 87.6875C41 89.1875 37.25 89.9375 33.0938 89.9375C29.0625 89.9375 25.3594 89.1875 21.9844 87.6875C18.6406 86.1875 15.7344 84.0156 13.2656 81.1719C10.8281 78.3281 8.9375 74.875 7.59375 70.8125C6.25 66.75 5.57812 62.1562 5.57812 57.0312V52.7188C5.57812 47.5938 6.23438 43.0156 7.54688 38.9844C8.89062 34.9219 10.7812 31.4688 13.2188 28.625C15.6562 25.75 18.5469 23.5625 21.8906 22.0625C25.2656 20.5625 28.9688 19.8125 33 19.8125C37.1562 19.8125 40.9062 20.5625 44.25 22.0625C47.625 23.5625 50.5156 25.75 52.9219 28.625C55.3594 31.4688 57.2188 34.9219 58.5 38.9844C59.8125 43.0156 60.4688 47.5938 60.4688 52.7188ZM51.5156 57.0312V52.625C51.5156 48.5625 51.0938 44.9688 50.25 41.8438C49.4375 38.7188 48.2344 36.0938 46.6406 33.9688C45.0469 31.8438 43.0938 30.2344 40.7812 29.1406C38.5 28.0469 35.9062 27.5 33 27.5C30.1875 27.5 27.6406 28.0469 25.3594 29.1406C23.1094 30.2344 21.1719 31.8438 19.5469 33.9688C17.9531 36.0938 16.7188 38.7188 15.8438 41.8438C14.9688 44.9688 14.5312 48.5625 14.5312 52.625V57.0312C14.5312 61.125 14.9688 64.75 15.8438 67.9062C16.7188 71.0312 17.9688 73.6719 19.5938 75.8281C21.25 77.9531 23.2031 79.5625 25.4531 80.6562C27.7344 81.75 30.2812 82.2969 33.0938 82.2969C36.0312 82.2969 38.6406 81.75 40.9219 80.6562C43.2031 79.5625 45.125 77.9531 46.6875 75.8281C48.2812 73.6719 49.4844 71.0312 50.2969 67.9062C51.1094 64.75 51.5156 61.125 51.5156 57.0312Z" fill="white"/>
<path d="M73.2812 81.6406V89H37.1406V81.6406H73.2812ZM38.9688 20.75V89H29.9219V20.75H38.9688ZM68.5 50.0938V57.4531H37.1406V50.0938H68.5ZM72.8125 20.75V28.1562H37.1406V20.75H72.8125Z" fill="white"/>
</svg>
