<svg width="33" height="27" viewBox="0 0 33 27" fill="none" xmlns="http://www.w3.org/2000/svg">
<path d="M30.25 0H2.75C1.23177 0 0 1.29576 0 2.89286V24.1071C0 25.7042 1.23177 27 2.75 27H30.25C31.7682 27 33 25.7042 33 24.1071V2.89286C33 1.29576 31.7682 0 30.25 0ZM10.0833 5.78571C12.1057 5.78571 13.75 7.5154 13.75 9.64286C13.75 11.7703 12.1057 13.5 10.0833 13.5C8.06094 13.5 6.41667 11.7703 6.41667 9.64286C6.41667 7.5154 8.06094 5.78571 10.0833 5.78571ZM16.5 20.0571C16.5 20.696 15.9271 21.2143 15.2167 21.2143H4.95C4.23958 21.2143 3.66667 20.696 3.66667 20.0571V18.9C3.66667 16.9835 5.39115 15.4286 7.51667 15.4286H7.80312C8.50781 15.7359 9.27552 15.9107 10.0833 15.9107C10.8911 15.9107 11.6646 15.7359 12.3635 15.4286H12.65C14.7755 15.4286 16.5 16.9835 16.5 18.9V20.0571ZM29.3333 16.875C29.3333 17.1402 29.1271 17.3571 28.875 17.3571H20.625C20.3729 17.3571 20.1667 17.1402 20.1667 16.875V15.9107C20.1667 15.6455 20.3729 15.4286 20.625 15.4286H28.875C29.1271 15.4286 29.3333 15.6455 29.3333 15.9107V16.875ZM29.3333 13.0179C29.3333 13.283 29.1271 13.5 28.875 13.5H20.625C20.3729 13.5 20.1667 13.283 20.1667 13.0179V12.0536C20.1667 11.7884 20.3729 11.5714 20.625 11.5714H28.875C29.1271 11.5714 29.3333 11.7884 29.3333 12.0536V13.0179ZM29.3333 9.16071C29.3333 9.42589 29.1271 9.64286 28.875 9.64286H20.625C20.3729 9.64286 20.1667 9.42589 20.1667 9.16071V8.19643C20.1667 7.93125 20.3729 7.71429 20.625 7.71429H28.875C29.1271 7.71429 29.3333 7.93125 29.3333 8.19643V9.16071Z" fill="#535353"/>
</svg>
