<svg width="38" height="38" viewBox="0 0 38 38" fill="none" xmlns="http://www.w3.org/2000/svg">
<path d="M30.875 17.2188H28.3516V8.90625C28.3516 6.28262 26.2252 4.15625 23.6016 4.15625H14.3984C11.7748 4.15625 9.64844 6.28262 9.64844 8.90625V17.2188H7.125C6.46816 17.2188 5.9375 17.7494 5.9375 18.4062V32.6562C5.9375 33.3131 6.46816 33.8438 7.125 33.8438H30.875C31.5318 33.8438 32.0625 33.3131 32.0625 32.6562V18.4062C32.0625 17.7494 31.5318 17.2188 30.875 17.2188ZM20.0391 26.0137V27.9805C20.0391 28.1438 19.9055 28.2773 19.7422 28.2773H18.2578C18.0945 28.2773 17.9609 28.1438 17.9609 27.9805V26.0137C17.6546 25.7937 17.426 25.4823 17.3079 25.1241C17.1899 24.766 17.1885 24.3796 17.304 24.0207C17.4195 23.6617 17.646 23.3486 17.9508 23.1265C18.2555 22.9045 18.6229 22.7848 19 22.7848C19.3771 22.7848 19.7445 22.9045 20.0492 23.1265C20.354 23.3486 20.5805 23.6617 20.696 24.0207C20.8115 24.3796 20.8101 24.766 20.6921 25.1241C20.574 25.4823 20.3454 25.7937 20.0391 26.0137V26.0137ZM25.6797 17.2188H12.3203V8.90625C12.3203 7.75957 13.2518 6.82812 14.3984 6.82812H23.6016C24.7482 6.82812 25.6797 7.75957 25.6797 8.90625V17.2188Z" fill="#535353"/>
</svg>
