<svg width="31" height="33" viewBox="0 0 31 33" fill="none" xmlns="http://www.w3.org/2000/svg">
<path d="M11.3284 20.4402C12.5348 20.4402 13.7142 20.0718 14.7173 19.3818C15.7204 18.6918 16.5023 17.711 16.9639 16.5635C17.4256 15.416 17.5464 14.1533 17.3111 12.9352C17.0757 11.717 16.4947 10.598 15.6417 9.71976C14.7886 8.84151 13.7017 8.24341 12.5184 8.0011C11.3351 7.75879 10.1087 7.88315 8.99405 8.35846C7.87944 8.83377 6.92676 9.63867 6.2565 10.6714C5.58623 11.7041 5.22848 12.9183 5.22848 14.1603C5.22848 15.8258 5.87115 17.4231 7.0151 18.6008C8.15905 19.7785 9.71058 20.4402 11.3284 20.4402ZM11.3284 22.2344C7.54753 22.2344 0 24.6387 0 29.4114V32.9999H22.6568V29.4114C22.6568 24.6387 15.1092 22.2344 11.3284 22.2344Z" fill="#FFFEFE"/>
<path d="M21.918 3.38611V12.8675" stroke="white" stroke-width="2" stroke-linecap="round" stroke-linejoin="round"/>
<path d="M17.1773 8.12683H26.6587" stroke="white" stroke-width="2" stroke-linecap="round" stroke-linejoin="round"/>
</svg>
