<svg width="34" height="34" viewBox="0 0 34 34" fill="none" xmlns="http://www.w3.org/2000/svg">
<path d="M33.0039 18.1289L21.8477 29.2851C20.8516 30.2812 19.125 29.584 19.125 28.1562V21.7812H10.0938C9.21055 21.7812 8.5 21.0707 8.5 20.1875V13.8125C8.5 12.9293 9.21055 12.2187 10.0938 12.2187H19.125V5.84374C19.125 4.42265 20.8449 3.71874 21.8477 4.71484L33.0039 15.8711C33.6215 16.4953 33.6215 17.5047 33.0039 18.1289ZM12.75 28.9531V26.2969C12.75 25.8586 12.3914 25.5 11.9531 25.5H6.375C5.19961 25.5 4.25 24.5504 4.25 23.375V10.625C4.25 9.4496 5.19961 8.49999 6.375 8.49999H11.9531C12.3914 8.49999 12.75 8.1414 12.75 7.70312V5.04687C12.75 4.60859 12.3914 4.24999 11.9531 4.24999H6.375C2.85547 4.24999 0 7.10546 0 10.625V23.375C0 26.8945 2.85547 29.75 6.375 29.75H11.9531C12.3914 29.75 12.75 29.3914 12.75 28.9531Z" fill="white"/>
</svg>
